# xmcd
#
# Track frame offsets: 
#        150
#        17822
#        29898
#        41617
#        60336
#        86396
#        103180
#        121085
#        136021
#        148420
#        159255
#
# Disc length: 2316 seconds
#
# Revision: 0
# Processed by: cddbd v1.5.2PL0 Copyright (c) Steve Scherf et al.
# Submitted via: ExactAudioCopy v0.99pb5
#
DISCID=8e090a0b
DTITLE=The Silvertones - Crusin'
DYEAR=1999
DGENRE=Blues
TTITLE0=Sugar Mama
TTITLE1=I Don't Care
TTITLE2=Big Boss Man
TTITLE3=7 Nights To Rack
TTITLE4=Sneakin' Around Town
TTITLE5=Crusin'
TTITLE6=On Down The Road
TTITLE7=Give Me A Break
TTITLE8=Treat Me This Way
TTITLE9=Don't Make Me Cry
TTITLE10=Whiskey On The Shelf
EXTD=
EXTT0=
EXTT1=
EXTT2=
EXTT3=
EXTT4=
EXTT5=
EXTT6=
EXTT7=
EXTT8=
EXTT9=
EXTT10=
PLAYORDER=
